# xmcd CD database file
#
# Track frame offsets:
#	150
#	16181
#	36945
#	66298
#	92137
#	114977
#	137022
#	155811
#	182322
#	209890
#	235204
#
# Disc length: 3490 seconds
#
# Revision: 0
# Processed by: cddbd v1.5.1PL0 Copyright (c) Steve Scherf et al.
# Submitted via: CDex 1.51
#
DISCID=960da00b
DTITLE=Various Artist - NON STOP SALSA Carnival
DYEAR=2002
DGENRE=Salsa
TTITLE0=Y ahora baila - Manuel González
TTITLE1=Se acabó la rabia - Leonel Limonta
TTITLE2=Lola Lola - David Calzado
TTITLE3=Te voy a hacer llorar - Danny Lozada
TTITLE4=Un adiós - Joel Domíngez
TTITLE5=Hablando como extranjero - Adalberto Álvarez
TTITLE6=No sé por qué me echó Bilongo - Cándido Fabré
TTITLE7=Lo que dejó Sebastián - César Pedroso
TTITLE8=El trágico - José Luis Cortés
TTITLE9=A mí que me den - Pachito Alonso
TTITLE10=Solocación - Paulo Fernández Gallo
EXTD=YEAR: 2002
EXTT0=
EXTT1=
EXTT2=
EXTT3=
EXTT4=
EXTT5=
EXTT6=
EXTT7=
EXTT8=
EXTT9=
EXTT10=
PLAYORDER=
